# xmcd
#
# Track frame offsets: 
#        163
#        12106
#        26131
#        37296
#        48306
#        60580
#        71886
#        82092
#        92984
#        104836
#        116639
#        126305
#        137252
#        149724
#        163660
#        173794
#        184523
#        196041
#        205734
#        215574
#        229396
#        241365
#        251910
#        262367
#        273441
#        282898
#
# Disc length: 3926 seconds
#
# Revision: 2
# Processed by: cddbd v1.5.2PL0 Copyright (c) Steve Scherf et al.
# Submitted via: ExactAudioCopy v0.99pb4
#
DISCID=9e0f541a
DTITLE=Various Artist - Talcum Soul 6
DYEAR=2007
DGENRE=Soul
TTITLE0=Sam Ambrose - They'll Be Comming
TTITLE1=The Outsiders - Lonely Man
TTITLE2=Sam Williams - Love Slipped Thru My Fingers
TTITLE3=Alexander Patton - No More Dreams
TTITLE4=D and Joe - Who's It Gonna Be
TTITLE5=Grover Mitchell - Take Your Time and Love Me
TTITLE6=Reggie Garner - Hotline
TTITLE7=Bird Rollins - Love Man from Carolina
TTITLE8=Jimmy Holiday - Spread Your Love
TTITLE9=Herman Hitson - Yes You Did
TTITLE10=Bettye Lavette - I'm Just a Fool for You
TTITLE11=Inez and Charlie Foxx - La De Da I Love You
TTITLE12=Clydie King - My Love Grows Deeper
TTITLE13=Top Shelf - No Second Thoughts
TTITLE14=Willie Hightower - Nobody But You
TTITLE15=The Diplomats - Perfect Love
TTITLE16=Esther Phillips - Nobody But You
TTITLE17=Jimmy Love - Two Sides to Every Story
TTITLE18=Patrice Holloway - Black Mother Goose
TTITLE19=Purple Mundi - Stop Hurting Me Baby
TTITLE20=Kenny Wells - Isn't It Just a Shame
TTITLE21=The Thrills - Ink Pen Full of Tears
TTITLE22=Baby Washington - It's All Over But the Crying
TTITLE23=Little Natalie and Henry - Teardrops Are Falling
TTITLE24=Annabelle Fox - Lonely Girl
TTITLE25=Gene McDaniels - It's a Lonely Town (Lonely Without You)
EXTD=YEAR: 2007
EXTT0=
EXTT1=
EXTT2=
EXTT3=
EXTT4=
EXTT5=
EXTT6=
EXTT7=
EXTT8=
EXTT9=
EXTT10=
EXTT11=
EXTT12=
EXTT13=
EXTT14=
EXTT15=
EXTT16=
EXTT17=
EXTT18=
EXTT19=
EXTT20=
EXTT21=
EXTT22=
EXTT23=
EXTT24=
EXTT25=
PLAYORDER=
